<svg xmlns="http://www.w3.org/2000/svg" version="1.1" xmlns:xlink="http://www.w3.org/1999/xlink" xmlns:svgjs="http://svgjs.dev/svgjs" width="2000" height="505" viewBox="0 0 2000 505"><g transform="matrix(1,0,0,1,-1.2121212121212466,-1.4480708984691262)"><svg viewBox="0 0 396 100" data-background-color="#ffffff" preserveAspectRatio="xMidYMid meet" height="505" width="2000" xmlns="http://www.w3.org/2000/svg" xmlns:xlink="http://www.w3.org/1999/xlink"><g id="tight-bounds" transform="matrix(1,0,0,1,0.2400000000000091,0.28674671256814577)"><svg viewBox="0 0 395.52 99.4265065748637" height="99.4265065748637" width="395.52"><g><svg viewBox="0 0 547.2162013954054 137.56016192837836" height="99.4265065748637" width="395.52"><g transform="matrix(1,0,0,1,151.69620139540538,38.840486369594586)"><svg viewBox="0 0 395.52 59.879189189189184" height="59.879189189189184" width="395.52"><g id="textblocktransform"><svg viewBox="0 0 395.52 59.879189189189184" height="59.879189189189184" width="395.52" id="textblock"><g><svg viewBox="0 0 395.52 59.879189189189184" height="59.879189189189184" width="395.52"><g transform="matrix(1,0,0,1,0,0)"><svg width="395.52" viewBox="4.49 -35.01 231.23 35.01" height="59.879189189189184" data-palette-color="#704ef8"><path d="M4.49-35.01L9.5-35.01 9.5-19.9 26.2-35.01 33.25-35.01 14.31-17.85 34.01 0 26.95 0 9.5-15.75 9.5 0 4.49 0 4.49-35.01ZM52.76-21.19L42.84-21.19 42.84 0 38.06 0 38.06-26 42.84-26 42.84-21.41Q42.89-22.36 43.28-23.21 43.67-24.05 44.32-24.67 44.97-25.29 45.82-25.65 46.68-26 47.65-26L47.65-26 52.76-26Q53.76-26 54.62-25.62 55.49-25.24 56.15-24.6 56.81-23.95 57.19-23.07 57.57-22.19 57.57-21.19L57.57-21.19 57.57-16.8 52.76-16.8 52.76-21.19ZM85.54-21.19L85.54-10.55 68.33-10.55 68.33-4.81 85.54-4.81 85.54 0 68.33 0Q67.35 0 66.47-0.38 65.6-0.76 64.95-1.4 64.3-2.05 63.92-2.93 63.54-3.81 63.54-4.81L63.54-4.81 63.54-21.19Q63.54-22.19 63.92-23.07 64.3-23.95 64.95-24.6 65.6-25.24 66.47-25.62 67.35-26 68.33-26L68.33-26 80.73-26Q81.73-26 82.61-25.62 83.49-25.24 84.14-24.6 84.79-23.95 85.16-23.07 85.54-22.19 85.54-21.19L85.54-21.19ZM80.73-21.19L68.33-21.19 68.33-15.36 80.73-15.36 80.73-21.19ZM93.55-4.81L93.55-11.35Q93.55-12.35 93.93-13.22 94.3-14.09 94.95-14.75 95.6-15.41 96.48-15.78 97.36-16.16 98.33-16.16L98.33-16.16 110.73-16.16 110.73-21.19 95.04-21.19 95.04-26 110.73-26Q111.74-26 112.61-25.62 113.49-25.24 114.14-24.6 114.79-23.95 115.17-23.07 115.54-22.19 115.54-21.19L115.54-21.19 115.54 0 110.73 0 110.73-4.39Q110.66-3.49 110.25-2.69 109.83-1.88 109.18-1.28 108.54-0.68 107.71-0.34 106.88 0 105.95 0L105.95 0 98.33 0Q97.36 0 96.48-0.38 95.6-0.76 94.95-1.4 94.3-2.05 93.93-2.93 93.55-3.81 93.55-4.81L93.55-4.81ZM98.33-11.35L98.33-4.81 110.73-4.81 110.73-11.35 98.33-11.35ZM122.04-21.19L122.04-26 128.38-26 128.38-34.01 133.19-34.01 133.19-26 141.74-26 141.74-21.19 133.19-21.19 133.19-4.81 141.74-4.81 141.74 0 133.19 0Q132.22 0 131.34-0.38 130.46-0.76 129.8-1.4 129.14-2.05 128.76-2.93 128.38-3.81 128.38-4.81L128.38-4.81 128.38-21.19 122.04-21.19ZM172.23-21.19L172.23-4.81Q172.23-3.81 171.85-2.93 171.47-2.05 170.82-1.4 170.18-0.76 169.31-0.38 168.44 0 167.44 0L167.44 0 154.53 0Q153.55 0 152.67-0.38 151.79-0.76 151.15-1.4 150.5-2.05 150.12-2.93 149.74-3.81 149.74-4.81L149.74-4.81 149.74-21.19Q149.74-22.19 150.12-23.07 150.5-23.95 151.15-24.6 151.79-25.24 152.67-25.62 153.55-26 154.53-26L154.53-26 167.44-26Q168.44-26 169.31-25.62 170.18-25.24 170.82-24.6 171.47-23.95 171.85-23.07 172.23-22.19 172.23-21.19L172.23-21.19ZM167.44-21.19L154.53-21.19 154.53-4.81 167.44-4.81 167.44-21.19ZM206.21-35.01L211.21-35.01 224.71 0 219.71 0 216.61-8.06 200.81-8.06 197.71 0 192.71 0 206.21-35.01ZM208.72-28.49L202.72-13.06 214.68-13.06 208.72-28.49ZM230.72-35.01L235.72-35.01 235.72 0 230.72 0 230.72-35.01Z" opacity="1" transform="matrix(1,0,0,1,0,0)" fill="#704ef8" class="wordmark-text-0" data-fill-palette-color="primary" id="text-0"></path></svg></g></svg></g></svg></g></svg></g><g><svg viewBox="0 0 137.56016192837836 137.56016192837836" height="137.56016192837836" width="137.56016192837836"><g><svg></svg></g><g id="icon-0"><svg viewBox="0 0 137.56016192837836 137.56016192837836" height="137.56016192837836" width="137.56016192837836"><g><rect width="125.07785093858105" height="125.07785093858105" x="6.241155494898656" y="6.241155494898656" fill="#704ef8" data-fill-palette-color="accent"></rect><rect width="125.07785093858105" height="125.07785093858105" x="12.482310989797302" y="9.769962616701378e-15" fill="#704ef8" opacity="0.5" data-fill-palette-color="accent"></rect></g><g transform="matrix(1,0,0,1,18.452466231885722,17.83187284256757)"><svg viewBox="0 0 100.65522946460692 101.89641624324322" height="101.89641624324322" width="100.65522946460692"><g><svg xmlns="http://www.w3.org/2000/svg" xmlns:xlink="http://www.w3.org/1999/xlink" version="1.1" x="0" y="0" viewBox="6.5 5.927196825085705 87 88.0728031749143" style="enable-background:new 0 0 100 100;" xml:space="preserve" height="101.89641624324322" width="100.65522946460692" class="icon-dxe-0" data-fill-palette-color="quaternary" id="dxe-0"><g fill="#ffffff" data-fill-palette-color="quaternary"><path d="M93.5 50.5H82.8V43C82.8 36.9 77.9 32 71.8 32H52.8V23.5C57.5 21.9 60.1 16.8 58.5 12.1S51.8 4.8 47.1 6.4 39.8 13.1 41.4 17.8C42.3 20.4 44.2 22.4 46.8 23.4V32H27.8C21.7 32 16.8 36.9 16.8 43V50.5H6.5V75.5H16.8V94H82.8V75.5H93.5zM50 12C51.7 12 53 13.3 53 15S51.7 18 50 18 47 16.7 47 15 48.3 12 50 12M12.5 69.5V56.5H16.8V69.5zM37.8 88V77H46.8V88zM52.8 88V77H61.8V88zM76.8 88H67.8V71H31.8V88H22.8V43C22.8 40.2 25 38 27.8 38H71.8C74.6 38 76.8 40.2 76.8 43zM87.5 69.5H82.8V56.5H87.5z" fill="#ffffff" data-fill-palette-color="quaternary"></path><path d="M38 46C33 46 29 50 29 55S33 64 38 64 47 60 47 55 43 46 38 46M38 58C36.3 58 35 56.7 35 55S36.3 52 38 52 41 53.3 41 55 39.7 58 38 58" fill="#ffffff" data-fill-palette-color="quaternary"></path><path d="M62 46C57 46 53 50 53 55S57 64 62 64 71 60 71 55 67 46 62 46M62 58C60.3 58 59 56.7 59 55S60.3 52 62 52 65 53.3 65 55 63.7 58 62 58" fill="#ffffff" data-fill-palette-color="quaternary"></path></g></svg></g></svg></g></svg></g></svg></g></svg></g><defs></defs></svg><rect width="395.52" height="99.4265065748637" fill="none" stroke="none" visibility="hidden"></rect></g></svg></g></svg>